<?xml version="1.0" encoding="UTF-8"?>
<svg width="752pt" height="752pt" version="1.1" viewBox="0 0 752 752" xmlns="http://www.w3.org/2000/svg">
 <path d="m261.9 593.7c-2.8008-2.7773-4.3789-6.5586-4.3789-10.508 0-3.9453 1.5781-7.7266 4.3789-10.508l196.83-196.68-196.83-196.68c-2.7891-2.7852-4.3516-6.5664-4.3516-10.508s1.5625-7.7188 4.3516-10.508c2.7852-2.7852 6.5664-4.3516 10.508-4.3516s7.7188 1.5664 10.508 4.3516l207.19 207.19c2.8008 2.7812 4.3789 6.5625 4.3789 10.508 0 3.9492-1.5781 7.7305-4.3789 10.508l-207.19 207.19c-2.7812 2.8047-6.5625 4.3789-10.508 4.3789s-7.7305-1.5742-10.508-4.3789z"/>
</svg>
