<?xml version="1.0" encoding="UTF-8"?>
<svg width="752pt" height="752pt" version="1.1" viewBox="0 0 752 752" xmlns="http://www.w3.org/2000/svg">
 <path d="m469.09 593.7-207.19-207.19c-2.8008-2.7773-4.3789-6.5586-4.3789-10.508 0-3.9453 1.5781-7.7266 4.3789-10.508l207.19-207.19c3.7539-3.7539 9.2266-5.2188 14.352-3.8438 5.1289 1.375 9.1367 5.3789 10.508 10.508 1.375 5.125-0.089844 10.598-3.8438 14.352l-196.83 196.68 196.83 196.68c3.7539 3.7578 5.2188 9.2266 3.8438 14.355-1.3711 5.1289-5.3789 9.1328-10.508 10.508-5.125 1.375-10.598-0.09375-14.352-3.8477z"/>
</svg>
